<svg xmlns="http://www.w3.org/2000/svg" xmlns:xlink="http://www.w3.org/1999/xlink" width="500" zoomAndPan="magnify" viewBox="0 0 375 374.999991" height="500" preserveAspectRatio="xMidYMid meet" version="1.0"><defs><clipPath id="7daa29b529"><path d="M 0 107.449219 L 375 107.449219 L 375 260.449219 L 0 260.449219 Z M 0 107.449219 " clip-rule="nonzero"/></clipPath><clipPath id="f3a6efc9ee"><path d="M 248.96875 156.824219 L 228.476562 175.707031 L 308.273438 248.054688 L 297.054688 260.472656 L 216.121094 187.09375 L 190.339844 210.847656 L 231.382812 248.054688 L 220.164062 260.476562 L 161.113281 206.941406 L 103.058594 260.429688 L 91.742188 248.101562 L 161.023438 184.269531 L 177.890625 199.558594 L 203.671875 175.804688 L 153.285156 130.125 L 11.863281 260.429688 L 0.546875 248.101562 L 153.195312 107.449219 L 216.027344 164.417969 L 248.878906 134.148438 L 374.480469 248.039062 L 363.261719 260.457031 Z M 248.96875 156.824219 " clip-rule="nonzero"/></clipPath></defs><g clip-path="url(#7daa29b529)"><g clip-path="url(#f3a6efc9ee)"><path fill="#000000" d="M 0.546875 107.449219 L 0.546875 260.449219 L 374.480469 260.449219 L 374.480469 107.449219 Z M 0.546875 107.449219 " fill-opacity="1" fill-rule="nonzero"/></g></g></svg>