<svg xmlns="http://www.w3.org/2000/svg" xmlns:xlink="http://www.w3.org/1999/xlink" width="500" zoomAndPan="magnify" viewBox="0 0 375 374.999991" height="500" preserveAspectRatio="xMidYMid meet" version="1.0"><defs><clipPath id="e35ca40cd8"><path d="M 18.75 0 L 356.25 0 L 356.25 375 L 18.75 375 Z M 18.75 0 " clip-rule="nonzero"/></clipPath><clipPath id="332c54e609"><path d="M 18.792969 0 L 356.203125 0 L 356.203125 374.988281 L 18.792969 374.988281 Z M 18.792969 0 " clip-rule="nonzero"/></clipPath></defs><path fill="#272324" d="M 138.382812 255.285156 C 139.757812 227.625 162.699219 205.542969 190.695312 205.542969 L 218.992188 205.542969 C 246.988281 205.542969 269.925781 227.625 271.300781 255.285156 Z M 175.292969 149.25 C 175.292969 132.957031 188.550781 119.699219 204.84375 119.699219 C 221.136719 119.699219 234.394531 132.957031 234.394531 149.25 C 234.394531 165.546875 221.136719 178.800781 204.84375 178.800781 C 188.550781 178.800781 175.292969 165.546875 175.292969 149.25 Z M 221.589844 190.566406 C 237.894531 183.933594 249.421875 167.914062 249.421875 149.25 C 249.421875 124.671875 229.421875 104.675781 204.84375 104.675781 C 180.261719 104.675781 160.265625 124.671875 160.265625 149.25 C 160.265625 167.914062 171.789062 183.933594 188.097656 190.566406 C 152.128906 191.933594 123.289062 221.621094 123.289062 257.917969 L 123.289062 262.800781 C 123.289062 266.949219 126.652344 270.316406 130.804688 270.316406 L 278.882812 270.316406 C 283.03125 270.316406 286.394531 266.949219 286.394531 262.800781 L 286.394531 257.917969 C 286.394531 221.621094 257.558594 191.933594 221.589844 190.566406 " fill-opacity="1" fill-rule="nonzero"/><path fill="#272324" d="M 204.84375 119.871094 C 188.640625 119.871094 175.460938 133.050781 175.460938 149.25 C 175.460938 165.453125 188.640625 178.632812 204.84375 178.632812 C 221.042969 178.632812 234.222656 165.453125 234.222656 149.25 C 234.222656 133.050781 221.042969 119.871094 204.84375 119.871094 Z M 204.84375 178.972656 C 188.453125 178.972656 175.121094 165.640625 175.121094 149.25 C 175.121094 132.863281 188.453125 119.53125 204.84375 119.53125 C 221.230469 119.53125 234.5625 132.863281 234.5625 149.25 C 234.5625 165.640625 221.230469 178.972656 204.84375 178.972656 Z M 138.5625 255.117188 L 271.125 255.117188 C 269.648438 227.398438 246.785156 205.714844 218.992188 205.714844 L 190.695312 205.714844 C 162.898438 205.714844 140.035156 227.398438 138.5625 255.117188 Z M 271.480469 255.457031 L 138.203125 255.457031 L 138.210938 255.277344 C 138.882812 241.824219 144.644531 229.265625 154.4375 219.917969 C 164.265625 210.539062 177.140625 205.375 190.695312 205.375 L 218.992188 205.375 C 232.542969 205.375 245.421875 210.539062 255.246094 219.917969 C 265.039062 229.265625 270.800781 241.824219 271.472656 255.277344 Z M 204.84375 104.84375 C 180.355469 104.84375 160.4375 124.765625 160.4375 149.25 C 160.4375 167.402344 171.316406 183.558594 188.160156 190.410156 L 188.894531 190.707031 L 188.105469 190.734375 C 151.855469 192.113281 123.460938 221.625 123.460938 257.917969 L 123.460938 262.800781 C 123.460938 266.847656 126.753906 270.144531 130.804688 270.144531 L 278.882812 270.144531 C 282.929688 270.144531 286.222656 266.847656 286.222656 262.800781 L 286.222656 257.917969 C 286.222656 221.625 257.828125 192.113281 221.582031 190.734375 L 220.789062 190.707031 L 221.523438 190.410156 C 238.367188 183.558594 249.25 167.402344 249.25 149.25 C 249.25 124.765625 229.328125 104.84375 204.84375 104.84375 Z M 278.882812 270.484375 L 130.804688 270.484375 C 126.566406 270.484375 123.121094 267.039062 123.121094 262.800781 L 123.121094 257.917969 C 123.121094 240.351562 129.855469 223.699219 142.082031 211.027344 C 154.101562 198.570312 170.144531 191.273438 187.324219 190.429688 C 179.480469 187.082031 172.78125 181.59375 167.925781 174.515625 C 162.800781 167.050781 160.09375 158.316406 160.09375 149.25 C 160.09375 124.578125 180.167969 104.503906 204.84375 104.503906 C 229.515625 104.503906 249.589844 124.578125 249.589844 149.25 C 249.589844 158.316406 246.882812 167.050781 241.757812 174.515625 C 236.902344 181.59375 230.207031 187.082031 222.359375 190.429688 C 239.542969 191.273438 255.585938 198.570312 267.601562 211.027344 C 279.832031 223.699219 286.566406 240.351562 286.566406 257.917969 L 286.566406 262.800781 C 286.566406 267.039062 283.117188 270.484375 278.882812 270.484375 " fill-opacity="1" fill-rule="nonzero"/><g clip-path="url(#e35ca40cd8)"><path fill="#272324" d="M 341.003906 327.902344 C 341.003906 345.484375 326.699219 359.789062 309.117188 359.789062 L 100.566406 359.789062 C 82.984375 359.789062 68.679688 345.484375 68.679688 327.902344 L 68.679688 305.949219 L 95.855469 305.949219 C 100.003906 305.949219 103.367188 302.582031 103.367188 298.433594 C 103.367188 294.285156 100.003906 290.921875 95.855469 290.921875 L 68.679688 290.921875 L 68.679688 232.007812 L 95.855469 232.007812 C 100.003906 232.007812 103.367188 228.644531 103.367188 224.496094 C 103.367188 220.34375 100.003906 216.980469 95.855469 216.980469 L 68.679688 216.980469 L 68.679688 158.398438 L 95.855469 158.398438 C 100.003906 158.398438 103.367188 155.035156 103.367188 150.886719 C 103.367188 146.734375 100.003906 143.371094 95.855469 143.371094 L 68.679688 143.371094 L 68.679688 84.859375 L 95.855469 84.859375 C 100.003906 84.859375 103.367188 81.496094 103.367188 77.34375 C 103.367188 73.195312 100.003906 69.832031 95.855469 69.832031 L 68.679688 69.832031 L 68.679688 47.085938 C 68.679688 29.5 82.984375 15.199219 100.566406 15.199219 L 309.117188 15.199219 C 326.699219 15.199219 341.003906 29.5 341.003906 47.085938 Z M 309.117188 0.171875 L 100.566406 0.171875 C 74.699219 0.171875 53.652344 21.21875 53.652344 47.085938 L 53.652344 69.832031 L 26.476562 69.832031 C 22.328125 69.832031 18.964844 73.195312 18.964844 77.34375 C 18.964844 81.496094 22.328125 84.859375 26.476562 84.859375 L 53.652344 84.859375 L 53.652344 143.371094 L 26.476562 143.371094 C 22.328125 143.371094 18.964844 146.734375 18.964844 150.886719 C 18.964844 155.035156 22.328125 158.398438 26.476562 158.398438 L 53.652344 158.398438 L 53.652344 216.980469 L 26.476562 216.980469 C 22.328125 216.980469 18.964844 220.34375 18.964844 224.496094 C 18.964844 228.644531 22.328125 232.007812 26.476562 232.007812 L 53.652344 232.007812 L 53.652344 290.921875 L 26.476562 290.921875 C 22.328125 290.921875 18.964844 294.285156 18.964844 298.433594 C 18.964844 302.582031 22.328125 305.949219 26.476562 305.949219 L 53.652344 305.949219 L 53.652344 327.902344 C 53.652344 353.773438 74.699219 374.820312 100.566406 374.820312 L 309.117188 374.820312 C 334.988281 374.820312 356.03125 353.773438 356.03125 327.902344 L 356.03125 47.085938 C 356.03125 21.21875 334.988281 0.171875 309.117188 0.171875 " fill-opacity="1" fill-rule="nonzero"/></g><g clip-path="url(#332c54e609)"><path fill="#272324" d="M 68.851562 306.117188 L 68.851562 327.902344 C 68.851562 345.390625 83.078125 359.621094 100.566406 359.621094 L 309.117188 359.621094 C 326.605469 359.621094 340.835938 345.390625 340.835938 327.902344 L 340.835938 47.085938 C 340.835938 29.597656 326.605469 15.371094 309.117188 15.371094 L 100.566406 15.371094 C 83.078125 15.371094 68.851562 29.597656 68.851562 47.085938 L 68.851562 69.660156 L 95.855469 69.660156 C 100.089844 69.660156 103.539062 73.109375 103.539062 77.34375 C 103.539062 81.582031 100.089844 85.027344 95.855469 85.027344 L 68.851562 85.027344 L 68.851562 143.199219 L 95.855469 143.199219 C 100.089844 143.199219 103.539062 146.648438 103.539062 150.886719 C 103.539062 155.121094 100.089844 158.570312 95.855469 158.570312 L 68.851562 158.570312 L 68.851562 216.8125 L 95.855469 216.8125 C 100.089844 216.8125 103.539062 220.257812 103.539062 224.496094 C 103.539062 228.730469 100.089844 232.179688 95.855469 232.179688 L 68.851562 232.179688 L 68.851562 290.75 L 95.855469 290.75 C 100.089844 290.75 103.539062 294.199219 103.539062 298.433594 C 103.539062 302.671875 100.089844 306.117188 95.855469 306.117188 Z M 309.117188 359.960938 L 100.566406 359.960938 C 82.890625 359.960938 68.511719 345.582031 68.511719 327.902344 L 68.511719 305.777344 L 95.855469 305.777344 C 99.902344 305.777344 103.199219 302.484375 103.199219 298.433594 C 103.199219 294.386719 99.902344 291.089844 95.855469 291.089844 L 68.511719 291.089844 L 68.511719 231.839844 L 95.855469 231.839844 C 99.902344 231.839844 103.199219 228.542969 103.199219 224.496094 C 103.199219 220.445312 99.902344 217.152344 95.855469 217.152344 L 68.511719 217.152344 L 68.511719 158.226562 L 95.855469 158.226562 C 99.902344 158.226562 103.199219 154.933594 103.199219 150.886719 C 103.199219 146.835938 99.902344 143.542969 95.855469 143.542969 L 68.511719 143.542969 L 68.511719 84.6875 L 95.855469 84.6875 C 99.902344 84.6875 103.199219 81.394531 103.199219 77.34375 C 103.199219 73.296875 99.902344 70 95.855469 70 L 68.511719 70 L 68.511719 47.085938 C 68.511719 29.410156 82.890625 15.027344 100.566406 15.027344 L 309.117188 15.027344 C 326.792969 15.027344 341.175781 29.410156 341.175781 47.085938 L 341.175781 327.902344 C 341.175781 345.582031 326.792969 359.960938 309.117188 359.960938 Z M 26.476562 291.089844 C 22.429688 291.089844 19.136719 294.386719 19.136719 298.433594 C 19.136719 302.484375 22.429688 305.777344 26.476562 305.777344 L 53.824219 305.777344 L 53.824219 327.902344 C 53.824219 353.675781 74.792969 374.648438 100.566406 374.648438 L 309.117188 374.648438 C 334.890625 374.648438 355.863281 353.675781 355.863281 327.902344 L 355.863281 47.085938 C 355.863281 21.308594 334.890625 0.339844 309.117188 0.339844 L 100.566406 0.339844 C 74.792969 0.339844 53.824219 21.308594 53.824219 47.085938 L 53.824219 70 L 26.476562 70 C 22.429688 70 19.136719 73.296875 19.136719 77.34375 C 19.136719 81.394531 22.429688 84.6875 26.476562 84.6875 L 53.824219 84.6875 L 53.824219 143.542969 L 26.476562 143.542969 C 22.429688 143.542969 19.136719 146.835938 19.136719 150.886719 C 19.136719 154.933594 22.429688 158.226562 26.476562 158.226562 L 53.824219 158.226562 L 53.824219 217.152344 L 26.476562 217.152344 C 22.429688 217.152344 19.136719 220.445312 19.136719 224.496094 C 19.136719 228.542969 22.429688 231.839844 26.476562 231.839844 L 53.824219 231.839844 L 53.824219 291.089844 Z M 309.117188 374.988281 L 100.566406 374.988281 C 74.605469 374.988281 53.484375 353.863281 53.484375 327.902344 L 53.484375 306.117188 L 26.476562 306.117188 C 22.242188 306.117188 18.792969 302.671875 18.792969 298.433594 C 18.792969 294.199219 22.242188 290.75 26.476562 290.75 L 53.484375 290.75 L 53.484375 232.179688 L 26.476562 232.179688 C 22.242188 232.179688 18.792969 228.730469 18.792969 224.496094 C 18.792969 220.257812 22.242188 216.8125 26.476562 216.8125 L 53.484375 216.8125 L 53.484375 158.570312 L 26.476562 158.570312 C 22.242188 158.570312 18.792969 155.121094 18.792969 150.886719 C 18.792969 146.648438 22.242188 143.199219 26.476562 143.199219 L 53.484375 143.199219 L 53.484375 85.027344 L 26.476562 85.027344 C 22.242188 85.027344 18.792969 81.582031 18.792969 77.34375 C 18.792969 73.109375 22.242188 69.660156 26.476562 69.660156 L 53.484375 69.660156 L 53.484375 47.085938 C 53.484375 21.121094 74.605469 0 100.566406 0 L 309.117188 0 C 335.082031 0 356.203125 21.121094 356.203125 47.085938 L 356.203125 327.902344 C 356.203125 353.863281 335.082031 374.988281 309.117188 374.988281 " fill-opacity="1" fill-rule="nonzero"/></g></svg>