<svg xmlns="http://www.w3.org/2000/svg" xmlns:xlink="http://www.w3.org/1999/xlink" width="500" zoomAndPan="magnify" viewBox="0 0 375 374.999991" height="500" preserveAspectRatio="xMidYMid meet" version="1.0"><path fill="#000000" d="M 350.59375 210.429688 C 339.371094 201.214844 326.214844 194.003906 313.730469 186.71875 C 307.265625 183.003906 300.726562 179.285156 294.109375 175.792969 C 301.914062 166.652344 309.125 157.136719 315.8125 147.027344 C 330.675781 124.429688 347.769531 92.617188 328 67.570312 C 318.859375 55.898438 304.515625 53.296875 290.839844 57.757812 C 276.125 62.589844 262.230469 71.285156 248.851562 78.867188 C 242.164062 82.660156 235.550781 86.671875 228.933594 90.761719 C 228.933594 90.761719 228.933594 90.761719 228.859375 90.6875 C 224.253906 78.050781 218.828125 65.636719 212.4375 53.519531 C 200.101562 30.480469 181.371094 2.679688 151.273438 6.84375 C 132.097656 9.519531 125.410156 24.234375 123.03125 40.8125 C 120.730469 40.511719 118.351562 40.585938 116.121094 41.183594 C 108.691406 43.113281 105.269531 50.175781 104.453125 57.386719 C 103.710938 64.375 108.839844 70.023438 114.5625 73.21875 C 116.789062 74.480469 119.242188 75.523438 121.769531 76.265625 C 121.769531 88.234375 122.066406 100.273438 122.734375 112.316406 C 113.816406 110.382812 104.972656 108.746094 96.054688 107.1875 C 80.894531 104.585938 64.472656 100.941406 48.9375 102.058594 C 35.710938 103.023438 21.738281 108.671875 15.050781 120.9375 C 7.839844 134.242188 12.597656 149.183594 20.921875 160.703125 C 36.675781 182.410156 61.496094 198.316406 84.164062 211.992188 C 80.300781 216.300781 76.511719 220.6875 72.867188 225.074219 C 71.085938 227.15625 69.300781 229.308594 67.519531 231.464844 C 66.996094 231.167969 66.550781 230.945312 66.03125 230.722656 C 60.234375 228.269531 53.175781 227.675781 47.378906 230.351562 C 40.6875 233.324219 36.898438 241.796875 39.574219 248.710938 C 41.0625 252.5 43.808594 255.847656 46.78125 258.820312 C 46.039062 260.007812 45.296875 261.199219 44.628906 262.386719 C 37.640625 274.875 34.59375 290.929688 42.25 303.9375 C 49.160156 315.53125 62.464844 319.695312 75.320312 319.25 C 88.402344 318.804688 101.257812 314.789062 113.371094 310.03125 C 127.046875 304.679688 140.421875 298.363281 153.355469 291.449219 C 154.542969 290.78125 155.730469 290.1875 156.921875 289.515625 C 159.96875 298.363281 163.238281 307.132812 166.65625 315.753906 C 172.453125 330.398438 177.804688 346.675781 188.433594 358.570312 C 197.277344 368.453125 211.542969 374.847656 224.773438 370.757812 C 236.441406 367.191406 243.945312 356.933594 248.554688 346.15625 C 257.84375 324.675781 259.703125 299.328125 260.222656 275.691406 C 269.734375 277.179688 279.320312 278.292969 288.984375 278.738281 C 291.0625 285.429688 296.339844 291.152344 302.953125 293.605469 C 312.394531 297.097656 324.0625 292.339844 327.851562 282.828125 C 327.925781 282.828125 327.925781 282.828125 327.925781 282.753906 C 329.5625 280.523438 330.453125 278.070312 330.601562 275.542969 C 347.175781 271.15625 361.515625 261.71875 364.9375 242.914062 C 367.089844 229.757812 360.476562 218.457031 350.59375 210.429688 Z M 163.980469 271.304688 C 161.304688 263.054688 158.78125 254.730469 156.402344 246.40625 C 167.175781 250.417969 178.027344 254.210938 188.878906 257.703125 C 180.554688 262.164062 172.230469 266.773438 163.980469 271.304688 Z M 134.253906 127.703125 C 144.511719 130.082031 154.765625 132.757812 164.875 135.582031 C 155.65625 142.863281 146.589844 150.445312 137.746094 158.25 C 136.261719 148.066406 135.148438 137.886719 134.253906 127.703125 Z M 236.441406 140.414062 C 237.257812 143.3125 238 146.210938 238.671875 149.183594 C 222.46875 142.269531 206.046875 136.101562 189.398438 130.527344 C 200.992188 121.679688 212.882812 113.28125 225.144531 105.402344 C 229.53125 116.925781 233.246094 128.667969 236.441406 140.414062 Z M 241.867188 162.414062 C 244.542969 174.15625 246.917969 185.902344 249.222656 197.71875 C 249.296875 202.476562 249.222656 207.234375 249.074219 212.066406 C 249.074219 212.066406 249.074219 212.066406 249.074219 212.140625 C 236.589844 224.105469 223.511719 235.40625 210.28125 246.628906 C 205.972656 249.007812 201.585938 251.238281 197.203125 253.46875 C 182.785156 249.304688 168.515625 244.472656 154.394531 239.492188 C 148.375 217.417969 143.542969 195.117188 139.828125 172.597656 C 152.164062 161.074219 164.875 150.074219 178.027344 139.59375 C 199.726562 145.988281 221.058594 153.570312 241.867188 162.414062 Z M 140.050781 232.210938 C 127.789062 224.777344 115.824219 216.601562 103.488281 209.316406 C 103.414062 209.242188 103.339844 209.242188 103.265625 209.167969 C 111.960938 199.800781 120.878906 190.660156 130.019531 181.8125 C 132.695312 198.835938 136.039062 215.632812 140.050781 232.210938 Z M 248.851562 221.429688 C 248.480469 230.945312 248.109375 240.386719 248.109375 249.824219 C 248.109375 254.804688 248.109375 259.785156 247.960938 264.765625 C 234.210938 262.609375 220.613281 259.636719 207.308594 256.144531 C 221.503906 244.992188 235.402344 233.546875 248.851562 221.429688 Z M 249.148438 165.535156 C 259.40625 169.996094 269.4375 174.753906 279.394531 179.882812 C 272.039062 188.652344 264.308594 197.050781 256.210938 205.152344 C 254.128906 191.847656 251.824219 178.617188 249.148438 165.535156 Z M 266.984375 80.503906 C 278.652344 74.109375 294.335938 63.109375 308.304688 66.082031 C 320.492188 68.757812 326.738281 82.433594 326.8125 93.882812 C 326.886719 108.449219 319.378906 121.902344 312.171875 134.019531 C 304.441406 147.027344 295.671875 159.589844 286.160156 171.554688 C 273.078125 164.71875 259.777344 158.324219 246.324219 152.453125 C 245.582031 149.109375 244.765625 145.691406 243.945312 142.34375 C 240.601562 128.296875 236.8125 114.398438 232.277344 100.867188 C 243.648438 93.660156 255.167969 86.96875 266.984375 80.503906 Z M 132.546875 102.949219 C 132.171875 94.253906 132.023438 85.632812 131.949219 77.007812 C 133.734375 76.488281 135.445312 75.671875 137.003906 74.40625 C 142.949219 71.804688 148.300781 66.15625 146.441406 59.171875 C 145.625 56.121094 143.839844 53.371094 141.761719 51.066406 C 140.71875 49.953125 139.605469 48.914062 138.417969 48.019531 C 138.042969 47.722656 137.597656 47.425781 137.152344 47.054688 L 136.855469 46.757812 C 136.707031 46.609375 136.484375 46.460938 136.335938 46.386719 C 135.667969 45.863281 134.996094 45.417969 134.253906 44.972656 C 133.734375 44.601562 133.214844 44.304688 132.621094 44.007812 C 133.214844 35.757812 135.070312 27.503906 141.019531 22.078125 C 150.085938 13.828125 164.652344 15.835938 174.3125 21.78125 C 181.074219 25.871094 186.5 31.667969 191.03125 38.0625 C 191.109375 38.136719 191.109375 38.210938 191.183594 38.210938 C 186.277344 35.460938 181.148438 32.933594 175.945312 30.777344 C 174.683594 30.257812 173.792969 32.410156 175.054688 32.933594 C 181.222656 35.683594 187.242188 38.953125 192.890625 42.667969 C 193.855469 43.265625 194.75 44.007812 195.714844 44.675781 C 197.203125 46.980469 198.613281 49.359375 199.953125 51.738281 C 204.929688 60.210938 209.539062 68.90625 213.699219 77.902344 C 213.699219 77.902344 213.699219 77.976562 213.773438 77.976562 C 212.660156 77.15625 211.617188 76.339844 210.503906 75.523438 C 201.734375 69.351562 192.445312 64.300781 182.414062 60.582031 C 181.890625 60.359375 181.519531 61.25 182.039062 61.546875 C 191.109375 66.304688 200.027344 71.65625 208.347656 77.753906 C 211.320312 79.90625 214.144531 82.210938 216.894531 84.589844 C 218.53125 88.160156 220.015625 91.800781 221.503906 95.441406 C 206.269531 105.105469 191.332031 115.511719 176.914062 126.4375 C 165.394531 122.871094 153.726562 119.675781 142.058594 116.777344 C 139.234375 116.03125 136.335938 115.363281 133.511719 114.695312 C 132.992188 110.753906 132.769531 106.816406 132.546875 102.949219 Z M 80.894531 195.492188 C 80.820312 195.492188 80.820312 195.417969 80.746094 195.417969 C 80.300781 194.894531 79.78125 194.449219 79.335938 193.929688 C 77.699219 192.144531 76.0625 190.363281 74.578125 188.503906 C 71.382812 184.5625 68.410156 180.476562 65.660156 176.164062 C 60.457031 167.914062 56.148438 159.070312 51.835938 150.371094 C 51.6875 150.074219 51.316406 150.296875 51.390625 150.59375 C 53.175781 160.628906 57.1875 169.847656 62.539062 178.542969 C 64.320312 181.441406 66.253906 184.191406 68.1875 186.941406 C 61.125 182.035156 54.289062 176.757812 47.824219 171.183594 C 46.1875 169.773438 44.628906 168.359375 42.992188 166.875 C 41.65625 163.378906 40.464844 159.886719 39.351562 156.320312 C 37.046875 148.886719 35.488281 141.082031 34.074219 133.425781 C 33.925781 132.609375 32.664062 132.832031 32.664062 133.648438 C 32.292969 141.75 33.40625 149.554688 35.339844 157.433594 C 35.5625 158.324219 35.859375 159.144531 36.082031 159.960938 C 32.144531 155.574219 28.722656 150.894531 26.273438 145.617188 C 20.476562 132.832031 26.421875 121.011719 39.425781 116.476562 C 53.027344 111.796875 69.226562 115.660156 83.050781 117.742188 C 96.648438 119.824219 110.175781 122.351562 123.554688 125.324219 C 124.59375 139.296875 126.003906 153.34375 127.9375 167.246094 C 119.6875 174.753906 111.738281 182.484375 104.007812 190.4375 C 100.070312 194.449219 96.203125 198.539062 92.488281 202.699219 C 88.550781 200.320312 84.683594 197.941406 80.894531 195.492188 Z M 97.097656 302.375 C 87.359375 305.421875 76.363281 308.097656 66.179688 306.09375 C 52.355469 303.34375 47.601562 290.113281 51.316406 277.476562 C 52.503906 273.609375 54.140625 269.894531 56.222656 266.328125 C 58.824219 267.589844 61.648438 268.40625 64.695312 268.257812 C 75.988281 267.738281 79.484375 255.175781 77.476562 245.738281 C 77.476562 245.589844 77.476562 245.441406 77.402344 245.367188 C 77.105469 243.65625 76.660156 242.019531 75.988281 240.460938 C 82.160156 232.878906 88.402344 225.59375 94.867188 218.308594 C 99.695312 221.132812 104.527344 223.734375 109.507812 226.1875 C 109.507812 226.78125 109.804688 227.378906 110.472656 227.675781 C 120.953125 232.285156 131.578125 236.667969 142.28125 240.90625 C 144.660156 250.34375 147.335938 259.785156 150.160156 269.078125 C 150.976562 271.902344 151.867188 274.652344 152.835938 277.402344 C 134.996094 287.214844 116.492188 296.429688 97.097656 302.375 Z M 206.046875 356.710938 C 193.113281 349.871094 187.6875 334.488281 182.414062 321.777344 C 177.136719 308.992188 172.304688 296.058594 167.847656 283.050781 C 172.230469 280.523438 176.542969 277.847656 180.851562 275.023438 C 181.371094 275.320312 182.039062 275.394531 182.5625 274.949219 C 188.582031 270.488281 194.675781 265.953125 200.621094 261.421875 C 200.917969 261.496094 201.140625 261.570312 201.4375 261.71875 C 216.746094 266.328125 232.203125 270.414062 247.8125 273.460938 C 247.738281 276.507812 247.664062 279.558594 247.441406 282.605469 C 247.441406 282.605469 247.441406 282.679688 247.441406 282.679688 C 245.804688 286.542969 243.871094 290.410156 241.644531 293.976562 C 240.453125 295.910156 239.117188 297.695312 237.703125 299.476562 C 237.703125 299.402344 237.628906 299.328125 237.554688 299.328125 C 237.332031 299.328125 237.332031 299.625 237.480469 299.699219 C 233.617188 304.53125 229.230469 308.917969 225.21875 313.601562 C 224.996094 313.824219 225.21875 314.34375 225.589844 314.195312 C 233.839844 310.851562 240.082031 303.789062 245.0625 296.652344 C 245.65625 295.761719 246.175781 294.867188 246.695312 293.976562 C 246.695312 293.976562 246.695312 294.050781 246.695312 294.050781 C 246.769531 294.125 246.695312 294.125 246.695312 294.125 C 246.101562 301.558594 245.136719 308.992188 243.796875 316.351562 C 242.015625 320.140625 239.859375 323.855469 237.40625 327.203125 C 232.277344 334.261719 225.515625 340.0625 218.902344 345.710938 C 218.605469 345.933594 218.902344 346.453125 219.273438 346.304688 C 228.042969 343.480469 235.027344 337.386719 240.75 330.25 C 235.773438 347.34375 225.515625 367.042969 206.046875 356.710938 Z M 345.019531 257.40625 C 340.113281 261.867188 334.167969 264.617188 327.777344 266.328125 C 326.960938 265.0625 325.84375 263.875 324.65625 262.832031 C 319.15625 258.148438 311.574219 255.398438 304.292969 255.921875 C 300.800781 256.21875 297.308594 257.035156 294.335938 258.96875 C 290.765625 261.347656 288.6875 264.765625 288.015625 268.855469 C 278.726562 268.480469 269.4375 267.738281 260.222656 266.625 L 260.222656 266.328125 C 260.296875 256.441406 260.148438 246.628906 259.554688 236.742188 C 260.074219 236.371094 260.445312 235.925781 260.371094 235.183594 C 259.480469 227.972656 258.511719 220.6875 257.472656 213.476562 C 267.503906 204.1875 277.09375 194.671875 286.234375 184.636719 C 286.828125 185.160156 287.496094 185.679688 288.089844 186.199219 C 291.511719 189.394531 294.707031 192.890625 297.753906 196.457031 C 303.847656 203.445312 309.050781 211.398438 313.65625 219.5 C 314.101562 220.242188 315.367188 219.722656 315.070312 218.902344 C 313.507812 214.371094 311.722656 209.910156 309.273438 205.746094 C 306.820312 201.511719 303.996094 197.496094 301.023438 193.707031 C 299.832031 192.144531 298.496094 190.660156 297.160156 189.171875 C 297.160156 189.171875 297.234375 189.171875 297.234375 189.171875 C 304.144531 192.890625 310.832031 196.828125 317.519531 200.84375 C 320.640625 204.1875 323.617188 207.753906 326.511719 211.398438 C 332.535156 219.054688 337.882812 227.378906 342.640625 235.851562 C 343.011719 236.445312 344.050781 236.074219 343.753906 235.40625 C 340.113281 226.113281 335.433594 217.640625 329.5625 209.613281 C 328.816406 208.574219 328 207.679688 327.257812 206.640625 C 327.257812 206.640625 327.332031 206.714844 327.332031 206.714844 C 335.730469 211.621094 344.5 217.046875 350.371094 224.480469 C 358.839844 235.257812 354.457031 248.785156 345.019531 257.40625 Z M 345.019531 257.40625 " fill-opacity="1" fill-rule="nonzero"/><path fill="#000000" d="M 197.796875 215.113281 C 199.800781 215.558594 201.882812 215.707031 203.890625 215.410156 C 206.269531 215.039062 208.796875 213.179688 210.28125 211.398438 C 213.550781 207.679688 214.964844 203.21875 215.113281 198.316406 C 215.410156 188.949219 210.800781 179.359375 203.296875 173.785156 C 195.34375 167.914062 183.453125 167.914062 175.574219 173.933594 C 168.070312 179.734375 164.726562 189.765625 166.878906 198.910156 C 169.851562 211.84375 185.3125 221.578125 197.796875 215.113281 Z M 178.917969 181.589844 C 180.183594 180.328125 180.925781 179.882812 182.785156 178.839844 C 183.304688 178.542969 183.601562 178.46875 184.640625 178.171875 C 185.085938 178.023438 185.535156 177.949219 186.054688 177.800781 C 186.277344 177.726562 186.425781 177.726562 186.648438 177.652344 C 186.796875 177.652344 186.871094 177.578125 186.945312 177.578125 C 186.945312 177.578125 187.019531 177.578125 187.019531 177.578125 C 189.027344 177.355469 191.109375 177.429688 192.816406 177.800781 C 193.632812 177.949219 194.453125 178.246094 195.269531 178.46875 C 195.863281 178.691406 195.195312 178.394531 195.9375 178.765625 C 196.382812 178.988281 196.828125 179.210938 197.277344 179.507812 C 198.910156 180.476562 199.355469 180.847656 200.84375 182.335938 C 201.140625 182.632812 201.4375 183.003906 201.734375 183.375 C 202.253906 183.96875 201.808594 183.449219 202.179688 183.894531 C 202.699219 184.636719 203.222656 185.382812 203.59375 186.199219 C 203.816406 186.570312 204.039062 187.015625 204.1875 187.460938 C 204.558594 188.28125 204.261719 187.460938 204.484375 188.058594 C 204.78125 188.875 205.078125 189.765625 205.375 190.660156 C 205.597656 191.550781 205.820312 192.441406 205.972656 193.335938 C 205.972656 193.484375 205.972656 193.484375 206.046875 193.558594 C 206.046875 193.632812 206.046875 193.632812 206.046875 193.707031 C 206.121094 194.226562 206.121094 194.746094 206.195312 195.265625 C 206.269531 196.308594 206.195312 197.273438 206.121094 198.316406 C 206.121094 198.539062 206.046875 198.6875 206.046875 198.910156 C 206.046875 198.910156 206.046875 198.984375 206.046875 198.984375 C 205.972656 199.429688 205.898438 199.800781 205.746094 200.246094 C 205.597656 200.695312 205.523438 201.214844 205.375 201.660156 C 205.300781 201.808594 205.152344 202.328125 205.003906 202.625 C 204.855469 202.921875 204.558594 203.59375 204.632812 203.59375 C 204.632812 203.667969 204.558594 203.890625 204.484375 204.039062 C 204.410156 204.261719 204.113281 204.855469 204.039062 205.003906 C 203.59375 205.820312 203.074219 206.566406 202.550781 207.308594 C 202.476562 207.457031 202.03125 208.050781 202.03125 208.125 C 201.734375 208.496094 201.4375 208.796875 201.140625 209.09375 C 199.800781 210.652344 198.910156 212.289062 197.425781 213.699219 C 191.777344 213.625 186.054688 210.726562 181.667969 207.382812 C 180.257812 206.34375 178.324219 204.484375 177.582031 203.445312 C 177.0625 202.699219 176.542969 201.957031 176.09375 201.214844 C 175.871094 200.769531 175.648438 200.394531 175.425781 199.949219 C 175.425781 199.949219 175.351562 199.800781 175.277344 199.652344 C 175.203125 199.503906 175.054688 198.984375 175.054688 198.984375 C 172.972656 192.816406 174.386719 186.050781 178.917969 181.589844 Z M 178.917969 181.589844 " fill-opacity="1" fill-rule="nonzero"/><path fill="#000000" d="M 337.214844 130.15625 C 335.582031 132.90625 333.722656 135.582031 331.714844 138.035156 C 329.859375 140.339844 327.628906 142.417969 325.917969 144.871094 C 324.507812 146.953125 327.257812 149.554688 329.335938 148.292969 C 334.539062 145.019531 338.628906 138.554688 341.601562 133.277344 C 344.871094 127.554688 347.324219 121.234375 348.882812 114.84375 C 352.003906 101.984375 351.484375 88.382812 347.175781 75.820312 C 346.355469 73.589844 342.863281 74.480469 343.53125 76.785156 C 347.25 88.679688 347.472656 101.464844 344.199219 113.503906 C 342.566406 119.378906 340.261719 124.953125 337.214844 130.15625 Z M 337.214844 130.15625 " fill-opacity="1" fill-rule="nonzero"/><path fill="#000000" d="M 321.90625 153.71875 C 321.535156 153.867188 321.164062 153.941406 320.792969 154.089844 C 320.046875 154.386719 319.675781 154.90625 319.230469 155.574219 C 318.710938 156.320312 318.191406 157.0625 317.746094 157.804688 C 316.777344 159.367188 315.738281 160.851562 314.621094 162.265625 C 313.433594 163.75 312.097656 165.015625 310.90625 166.425781 C 309.644531 167.839844 308.304688 169.253906 306.894531 170.515625 C 306.226562 171.109375 307.117188 172.078125 307.859375 171.78125 C 309.644531 170.960938 311.351562 169.996094 312.988281 168.953125 C 314.695312 167.914062 316.183594 166.425781 317.59375 165.015625 C 319.082031 163.527344 320.417969 161.96875 321.609375 160.332031 C 322.203125 159.589844 322.648438 158.773438 323.09375 157.953125 C 323.464844 157.359375 323.765625 156.765625 323.691406 156.019531 C 323.691406 155.5 323.464844 155.054688 323.390625 154.535156 C 323.167969 153.941406 322.5 153.570312 321.90625 153.71875 Z M 321.90625 153.71875 " fill-opacity="1" fill-rule="nonzero"/><path fill="#000000" d="M 197.203125 18.660156 C 199.207031 20.074219 201.066406 21.632812 202.847656 23.269531 C 206.34375 26.464844 209.6875 29.957031 212.511719 33.824219 C 218.160156 41.554688 221.429688 50.472656 225.515625 59.023438 C 225.664062 59.320312 226.109375 59.171875 226.109375 58.871094 C 226.632812 48.914062 221.875 39.25 216.300781 31.222656 C 213.476562 27.058594 210.207031 23.121094 206.417969 19.777344 C 204.632812 18.140625 202.773438 16.652344 200.84375 15.242188 C 198.984375 13.828125 196.457031 11.597656 194.082031 11.226562 C 192.445312 11.003906 190.289062 12.714844 191.628906 14.425781 C 193.039062 16.28125 195.34375 17.324219 197.203125 18.660156 Z M 197.203125 18.660156 " fill-opacity="1" fill-rule="nonzero"/><path fill="#000000" d="M 173.195312 2.976562 C 174.386719 3.125 175.5 3.421875 176.617188 3.792969 C 177.804688 4.242188 178.992188 4.464844 180.183594 4.910156 C 180.703125 5.132812 180.777344 5.132812 181.445312 5.503906 C 181.964844 5.800781 182.5625 6.097656 183.082031 6.394531 C 183.304688 6.546875 183.601562 6.621094 183.824219 6.769531 C 183.972656 6.84375 184.046875 6.917969 183.898438 6.769531 C 184.269531 6.917969 184.640625 7.140625 185.011719 7.289062 C 185.757812 7.511719 186.425781 7.289062 187.09375 7.066406 C 187.539062 6.917969 187.761719 6.546875 187.835938 6.097656 C 187.910156 5.429688 187.910156 4.6875 187.539062 4.09375 C 187.09375 3.421875 186.203125 2.679688 185.535156 2.308594 C 184.269531 1.640625 182.859375 1.117188 181.445312 0.820312 C 180.183594 0.523438 178.695312 0.152344 177.359375 0.300781 C 175.945312 0.449219 174.609375 0.746094 173.269531 1.191406 C 172.378906 1.417969 172.15625 2.828125 173.195312 2.976562 Z M 173.195312 2.976562 " fill-opacity="1" fill-rule="nonzero"/><path fill="#000000" d="M 116.640625 314.566406 C 111.8125 315.457031 107.574219 317.761719 102.96875 319.324219 C 98.136719 320.957031 93.230469 322.074219 88.179688 322.890625 C 83.125 323.707031 78.070312 324.230469 72.941406 324.75 C 68.039062 325.195312 63.132812 325.492188 58.449219 327.054688 C 58.152344 327.128906 58.152344 327.574219 58.449219 327.648438 C 63.355469 328.984375 68.410156 328.984375 73.464844 328.835938 C 78.8125 328.6875 84.164062 328.316406 89.441406 327.5 C 94.644531 326.757812 99.769531 325.566406 104.75 323.933594 C 109.65625 322.296875 114.410156 320.585938 117.757812 316.425781 C 118.5 315.605469 117.832031 314.34375 116.640625 314.566406 Z M 116.640625 314.566406 " fill-opacity="1" fill-rule="nonzero"/><path fill="#000000" d="M 136.484375 307.058594 C 134.921875 308.175781 133.289062 309.214844 131.578125 310.03125 C 131.207031 310.253906 130.761719 310.402344 130.390625 310.625 C 130.167969 310.699219 129.945312 310.851562 129.722656 310.925781 C 129.722656 310.925781 129.648438 310.925781 129.648438 310.925781 C 129.574219 310.925781 129.277344 311.074219 129.351562 311.074219 C 128.828125 311.296875 128.234375 311.445312 127.714844 311.742188 C 127.269531 311.964844 126.898438 312.261719 126.527344 312.484375 C 125.78125 312.929688 124.59375 314.046875 124.742188 315.085938 C 124.890625 316.203125 126.675781 316.574219 127.640625 316.5 C 128.160156 316.425781 128.605469 316.351562 129.125 316.277344 C 129.796875 316.128906 130.390625 315.902344 130.984375 315.605469 C 131.875 315.160156 132.695312 314.714844 133.511719 314.269531 C 135.445312 313.152344 137.300781 311.816406 139.085938 310.328125 C 139.828125 309.660156 139.828125 308.398438 139.234375 307.652344 C 138.566406 306.910156 137.300781 306.464844 136.484375 307.058594 Z M 136.484375 307.058594 " fill-opacity="1" fill-rule="nonzero"/><path fill="#000000" d="M 267.503906 304.382812 C 268.398438 314.269531 267.355469 324.304688 264.605469 333.816406 C 263.269531 338.648438 261.410156 343.332031 259.109375 347.792969 C 257.25 351.433594 253.3125 355.597656 253.3125 359.757812 C 253.3125 360.351562 253.90625 360.800781 254.425781 360.574219 C 258.734375 359.238281 261.1875 353.21875 263.046875 349.5 C 265.351562 344.816406 267.28125 339.914062 268.621094 334.859375 C 271.371094 324.75 271.742188 314.269531 270.179688 303.9375 C 269.882812 302.523438 267.355469 302.894531 267.503906 304.382812 Z M 267.503906 304.382812 " fill-opacity="1" fill-rule="nonzero"/><path fill="#000000" d="M 248.109375 364.367188 C 247.664062 364.367188 247.144531 364.367188 246.695312 364.367188 C 246.175781 364.367188 245.730469 364.515625 245.210938 364.664062 C 244.617188 364.8125 244.019531 364.960938 243.5 365.257812 C 243.054688 365.480469 242.609375 365.703125 242.164062 365.929688 C 241.273438 366.375 240.453125 366.820312 239.5625 367.265625 C 239.339844 367.339844 239.117188 367.488281 238.96875 367.5625 C 238.597656 367.785156 238.300781 368.082031 238 368.453125 C 237.703125 368.828125 237.480469 369.199219 237.183594 369.496094 C 236.664062 370.164062 237.332031 371.132812 238.148438 371.132812 C 238.597656 371.132812 239.117188 371.132812 239.5625 371.132812 C 240.230469 371.132812 240.75 370.832031 241.421875 370.535156 C 242.3125 370.089844 243.203125 369.644531 244.171875 369.199219 C 244.617188 368.976562 245.0625 368.828125 245.507812 368.53125 C 245.953125 368.304688 246.324219 367.933594 246.695312 367.636719 C 247.21875 367.265625 247.664062 366.894531 248.035156 366.449219 C 248.332031 366.078125 248.554688 365.703125 248.851562 365.40625 C 249.074219 365.035156 248.628906 364.367188 248.109375 364.367188 Z M 248.109375 364.367188 " fill-opacity="1" fill-rule="nonzero"/><path fill="#000000" d="M 310.683594 81.171875 C 311.203125 83.03125 312.023438 84.8125 312.542969 86.671875 C 313.507812 90.3125 314.101562 94.105469 314.027344 97.96875 C 314.027344 99.011719 314.621094 99.902344 315.441406 100.421875 C 316.40625 101.019531 317.371094 100.941406 318.339844 100.421875 C 319.230469 99.976562 319.75 98.9375 319.75 97.96875 C 319.75 93.585938 319.082031 89.199219 317.519531 85.109375 C 316.703125 83.03125 315.886719 80.875 314.472656 79.164062 C 313.878906 78.347656 313.210938 77.605469 312.46875 76.859375 C 311.722656 76.117188 311.054688 75.671875 310.015625 75.375 C 309.644531 75.226562 309.273438 75.597656 309.273438 75.894531 C 309.273438 76.933594 309.421875 77.679688 309.792969 78.644531 C 310.164062 79.460938 310.460938 80.355469 310.683594 81.171875 Z M 310.683594 81.171875 " fill-opacity="1" fill-rule="nonzero"/><path fill="#000000" d="M 196.605469 188.429688 C 196.679688 189.097656 196.828125 189.617188 196.980469 190.214844 C 197.054688 190.4375 197.128906 190.734375 197.128906 190.957031 C 197.128906 191.105469 197.203125 191.179688 197.203125 191.328125 C 197.203125 191.402344 197.203125 191.402344 197.203125 191.402344 C 197.277344 192.441406 197.351562 193.484375 197.351562 194.523438 C 197.351562 194.820312 197.351562 195.042969 197.277344 195.265625 C 197.277344 195.417969 197.277344 195.492188 197.277344 195.640625 C 197.203125 196.160156 197.054688 196.679688 196.902344 197.199219 C 196.605469 198.390625 197.351562 199.875 198.539062 200.171875 C 199.726562 200.46875 201.214844 199.800781 201.511719 198.539062 C 201.511719 198.464844 201.511719 198.390625 201.585938 198.316406 C 201.585938 198.316406 201.585938 198.242188 201.585938 198.242188 C 202.179688 195.714844 202.253906 193.113281 201.4375 190.660156 C 200.992188 189.394531 200.546875 187.984375 199.578125 187.089844 C 198.761719 186.273438 197.796875 185.605469 196.828125 184.9375 C 196.234375 184.5625 195.714844 185.308594 195.9375 185.828125 C 196.382812 186.644531 196.53125 187.539062 196.605469 188.429688 Z M 200.695312 195.789062 C 200.621094 195.789062 200.621094 195.714844 200.546875 195.714844 C 200.84375 195.789062 200.84375 195.863281 200.695312 195.789062 Z M 200.027344 195.417969 C 199.953125 195.417969 199.875 195.417969 199.800781 195.417969 C 199.578125 195.339844 199.578125 195.265625 200.027344 195.417969 Z M 200.027344 195.417969 " fill-opacity="1" fill-rule="nonzero"/></svg>