<svg xmlns="http://www.w3.org/2000/svg" xmlns:xlink="http://www.w3.org/1999/xlink" width="500" zoomAndPan="magnify" viewBox="0 0 375 374.999991" height="500" preserveAspectRatio="xMidYMid meet" version="1.0"><defs><clipPath id="994924bbdf"><path d="M 187.375 6.480469 C 174.476562 6.480469 162.019531 13.03125 150.820312 24.8125 L 223.925781 24.8125 C 212.730469 13.03125 200.273438 6.480469 187.375 6.480469 Z M 48.054688 137.84375 C 39.316406 137.84375 32.207031 144.953125 32.207031 153.6875 L 32.207031 221.0625 C 32.207031 229.796875 39.316406 236.90625 48.050781 236.90625 L 103.675781 236.90625 L 326.695312 236.902344 C 335.433594 236.902344 342.539062 229.796875 342.539062 221.0625 L 342.539062 219.167969 L 342.542969 155.601562 L 342.539062 155.519531 L 342.542969 155.453125 L 342.542969 153.6875 C 342.542969 144.953125 335.433594 137.84375 326.695312 137.84375 L 103.699219 137.84375 C 103.660156 137.84375 103.617188 137.84375 103.578125 137.84375 Z M 326.695312 243.480469 L 273.960938 243.480469 C 272.070312 256.054688 269.523438 268.1875 266.398438 279.648438 L 342.871094 279.648438 C 353.28125 262.117188 360.777344 242.800781 364.820312 222.453125 L 349.074219 222.457031 C 348.351562 234.171875 338.59375 243.480469 326.695312 243.480469 Z M 267.304688 243.480469 L 107.445312 243.480469 C 109.402344 256.265625 112 268.371094 115.148438 279.648438 L 259.597656 279.648438 C 262.746094 268.371094 265.347656 256.265625 267.304688 243.480469 Z M 100.785156 243.480469 L 48.054688 243.480469 C 36.171875 243.480469 26.429688 234.199219 25.679688 222.511719 L 9.917969 222.515625 C 13.96875 243.007812 21.496094 262.261719 31.851562 279.648438 L 108.347656 279.648438 C 105.222656 268.1875 102.675781 256.054688 100.785156 243.480469 Z M 25.628906 215.933594 L 25.632812 158.796875 L 8.738281 158.796875 C 7.253906 168.105469 6.480469 177.652344 6.480469 187.375 C 6.480469 197.09375 7.253906 206.632812 8.738281 215.9375 Z M 25.679688 152.21875 C 26.441406 140.539062 36.179688 131.265625 48.050781 131.265625 L 100.789062 131.265625 C 102.679688 118.691406 105.226562 106.558594 108.351562 95.097656 L 31.839844 95.097656 C 21.488281 112.480469 13.964844 131.734375 9.910156 152.21875 Z M 107.445312 131.265625 L 267.304688 131.265625 C 265.34375 118.480469 262.746094 106.375 259.597656 95.097656 L 115.152344 95.097656 C 112.003906 106.375 109.402344 118.480469 107.445312 131.265625 Z M 273.960938 131.265625 L 326.695312 131.265625 C 338.574219 131.265625 348.316406 140.542969 349.070312 152.230469 L 364.839844 152.230469 C 360.789062 131.738281 353.265625 112.484375 342.910156 95.097656 L 266.402344 95.097656 C 269.523438 106.558594 272.070312 118.691406 273.960938 131.265625 Z M 349.117188 158.804688 L 349.117188 215.878906 L 365.996094 215.875 C 367.492188 206.546875 368.269531 197.023438 368.269531 187.375 C 368.269531 177.65625 367.496094 168.113281 366.011719 158.804688 Z M 250.839844 199.453125 L 252.097656 208.078125 L 253.929688 200.308594 L 266.871094 154.683594 L 274.152344 154.683594 L 286.757812 200.308594 L 288.558594 208.199219 L 289.953125 199.40625 L 300.09375 154.683594 L 308.753906 154.683594 L 292.910156 220.0625 L 285.046875 220.0625 L 271.589844 172.414062 L 270.546875 167.433594 L 269.519531 172.414062 L 255.558594 220.0625 L 247.695312 220.0625 L 231.894531 154.683594 L 240.507812 154.683594 Z M 169.261719 199.453125 L 170.519531 208.078125 L 172.351562 200.308594 L 185.292969 154.683594 L 192.574219 154.683594 L 205.179688 200.308594 L 206.980469 208.199219 L 208.367188 199.40625 L 218.515625 154.683594 L 227.175781 154.683594 L 211.332031 220.0625 L 203.46875 220.0625 L 190.011719 172.414062 L 188.96875 167.433594 L 187.941406 172.414062 L 173.980469 220.0625 L 166.117188 220.0625 L 150.316406 154.683594 L 158.933594 154.683594 Z M 87.683594 199.453125 L 88.933594 208.078125 L 90.773438 200.308594 L 103.707031 154.683594 L 110.988281 154.683594 L 123.601562 200.308594 L 125.390625 208.199219 L 126.789062 199.40625 L 136.9375 154.683594 L 145.597656 154.683594 L 129.753906 220.0625 L 121.890625 220.0625 L 108.433594 172.414062 L 107.390625 167.433594 L 106.363281 172.414062 L 92.398438 220.0625 L 84.539062 220.0625 L 68.738281 154.683594 L 77.355469 154.683594 Z M 266.820312 349.933594 L 232.855469 349.933594 C 227.195312 356.699219 221.226562 362.132812 215.015625 366.175781 C 226.457031 364.421875 237.691406 361.570312 248.613281 357.644531 C 254.867188 355.394531 260.941406 352.8125 266.820312 349.933594 Z M 223.933594 349.933594 L 150.816406 349.933594 C 162.015625 361.722656 174.472656 368.269531 187.375 368.269531 C 200.277344 368.269531 212.734375 361.722656 223.933594 349.933594 Z M 141.890625 349.933594 L 108.070312 349.933594 C 124.101562 357.789062 141.457031 363.34375 159.707031 366.15625 C 153.507812 362.117188 147.542969 356.691406 141.890625 349.933594 Z M 95.855469 343.359375 L 136.792969 343.359375 C 135.140625 341.0625 133.515625 338.648438 131.925781 336.117188 C 123.3125 322.378906 115.949219 305.355469 110.230469 286.226562 L 35.953125 286.226562 C 51.238281 309.5625 71.769531 329.171875 95.855469 343.359375 Z M 145.121094 343.359375 L 229.625 343.355469 C 240.800781 329.246094 250.457031 309.710938 257.667969 286.226562 L 117.078125 286.226562 C 124.292969 309.714844 133.949219 329.25 145.121094 343.359375 Z M 237.957031 343.355469 L 279.042969 343.355469 C 303.300781 329.058594 323.660156 309.378906 338.773438 286.226562 L 264.519531 286.226562 C 258.800781 305.355469 251.4375 322.382812 242.820312 336.117188 C 241.230469 338.648438 239.609375 341.0625 237.957031 343.355469 Z M 35.945312 88.519531 L 110.230469 88.519531 C 115.949219 69.390625 123.3125 52.367188 131.925781 38.632812 C 133.515625 36.097656 135.140625 33.683594 136.792969 31.390625 L 95.847656 31.390625 C 71.761719 45.578125 51.230469 65.183594 35.945312 88.519531 Z M 117.078125 88.519531 L 257.671875 88.519531 C 250.457031 65.03125 240.796875 45.496094 229.621094 31.390625 L 145.128906 31.390625 C 133.953125 45.496094 124.292969 65.03125 117.078125 88.519531 Z M 264.523438 88.519531 L 338.804688 88.519531 C 323.519531 65.183594 302.988281 45.578125 278.902344 31.390625 L 237.957031 31.390625 C 239.609375 33.683594 241.230469 36.097656 242.820312 38.632812 C 251.441406 52.367188 258.804688 69.390625 264.523438 88.519531 Z M 141.894531 24.8125 C 147.542969 18.058594 153.503906 12.632812 159.703125 8.59375 C 141.460938 11.40625 124.113281 16.960938 108.085938 24.8125 Z M 266.664062 24.8125 C 250.636719 16.960938 233.289062 11.40625 215.046875 8.59375 C 221.246094 12.632812 227.207031 18.058594 232.855469 24.8125 Z M 187.375 374.84375 C 137.296875 374.84375 90.214844 355.347656 54.808594 319.9375 C 19.402344 284.527344 -0.0976562 237.449219 -0.0976562 187.375 C -0.0976562 137.296875 19.402344 90.21875 54.808594 54.808594 C 90.21875 19.402344 137.296875 -0.101562 187.375 -0.101562 C 237.453125 -0.101562 284.53125 19.402344 319.9375 54.808594 C 355.34375 90.21875 374.847656 137.296875 374.847656 187.375 C 374.847656 222.03125 365.488281 255.382812 347.675781 284.640625 L 347.671875 284.644531 C 345.253906 288.617188 342.683594 292.511719 339.953125 296.328125 C 317.617188 327.550781 286.800781 350.894531 250.839844 363.832031 C 230.515625 371.140625 209.164062 374.847656 187.375 374.84375 Z M 187.375 374.84375 " clip-rule="evenodd"/></clipPath></defs><g clip-path="url(#994924bbdf)"><path fill="#000000" d="M 0 0 L 0 374.847656 L 374.847656 374.847656 L 374.847656 0 Z M 0 0 " fill-opacity="1" fill-rule="nonzero"/></g></svg>